# xmcd CD database file
#
# Track frame offsets:
#	200
#	11025
#	26677
#	38402
#	48615
#	64557
#	76850
#	92687
#	103305
#	119032
#	129675
#	137247
#	149145
#	156290
#	167610
#	178032
#
# Disc length: 2429 seconds
#
# Revision: 0
# Processed by: cddbd v1.5.2PL0 Copyright (c) Steve Scherf et al.
# Submitted via: CDex 1.51
#
DISCID=e4097b10
DTITLE=Mike Cross - Irregular Guy
DYEAR=1990
DGENRE=Country
TTITLE0=The Cascade Jig/The Broken Branch Jig
TTITLE1=Carolina Calling
TTITLE2=Every Line on My Face
TTITLE3=Poor Man's Heaven
TTITLE4=Michael the Mason
TTITLE5=My Spirit's Willing
TTITLE6=Poor Lazarus
TTITLE7=Directions
TTITLE8=Brief Moment in the Sun
TTITLE9=Yo Down Fiddler
TTITLE10=Tobacco Song
TTITLE11=Flying Down the Highway
TTITLE12=Piney Woods
TTITLE13=Hard Times (Trouble and Strife)
TTITLE14=Basket of Thyme
TTITLE15=The Farewell Toast
EXTD=YEAR: 1990
EXTT0=
EXTT1=
EXTT2=
EXTT3=
EXTT4=
EXTT5=
EXTT6=
EXTT7=
EXTT8=
EXTT9=
EXTT10=
EXTT11=
EXTT12=
EXTT13=
EXTT14=
EXTT15=
PLAYORDER=
